<?xml version="1.0" standalone="no"?>
<!DOCTYPE svg PUBLIC "-//W3C//DTD SVG 20010904//EN"
 "http://www.w3.org/TR/2001/REC-SVG-20010904/DTD/svg10.dtd">
<svg version="1.0" xmlns="http://www.w3.org/2000/svg"
 width="1273.000000pt" height="1280.000000pt" viewBox="0 0 1273.000000 1280.000000"
 preserveAspectRatio="xMidYMid meet">
<g transform="translate(0.000000,1280.000000) scale(0.100000,-0.100000)"
fill="#000000" stroke="none">
<path d="M4256 12783 c-3 -10 -44 -164 -92 -343 -47 -179 -90 -332 -95 -341
-5 -11 -37 -23 -86 -34 -120 -26 -333 -82 -435 -115 l-93 -30 -255 255 c-140
140 -261 255 -268 255 -14 0 -979 -554 -999 -573 -10 -9 8 -86 78 -347 49
-184 91 -340 94 -347 5 -14 -442 -463 -462 -463 -7 0 -165 41 -350 90 -269 72
-339 88 -349 78 -14 -17 -574 -986 -574 -996 0 -4 115 -122 256 -263 l256
-256 -36 -114 c-31 -97 -93 -336 -123 -474 l-9 -40 -334 -87 c-184 -48 -345
-89 -357 -93 l-23 -5 0 -584 0 -583 348 -88 c191 -48 352 -93 358 -99 6 -6 21
-56 33 -111 32 -142 55 -231 104 -384 l42 -135 -260 -252 -259 -253 14 -29
c52 -105 567 -981 577 -982 7 0 164 43 349 95 185 52 341 92 346 89 5 -3 28
-27 51 -53 82 -91 278 -287 336 -336 33 -27 63 -57 66 -66 3 -10 -37 -171 -90
-360 -53 -188 -92 -345 -88 -349 4 -4 233 -137 508 -295 l500 -288 250 257
c172 176 257 256 271 256 11 0 47 -9 80 -20 106 -37 256 -78 393 -109 73 -16
137 -33 143 -39 5 -5 43 -141 84 -303 41 -162 82 -318 90 -346 l15 -53 579 0
580 0 11 22 c5 13 47 171 94 352 46 181 90 333 97 337 7 5 22 9 34 9 30 0 353
83 465 119 53 17 104 31 114 31 9 0 130 -115 269 -256 l251 -256 490 282 c270
156 497 289 506 297 14 12 7 45 -77 346 -51 182 -93 341 -94 352 0 13 41 57
116 125 63 58 163 158 222 222 59 65 112 119 117 122 6 2 163 -39 350 -91 207
-58 345 -91 353 -86 15 10 584 992 580 1002 -2 3 -115 116 -253 251 -137 135
-251 253 -253 263 -2 10 10 59 27 110 46 141 68 220 100 366 16 73 32 136 36
139 3 3 126 38 273 77 147 40 304 82 350 95 l82 22 -2 586 -3 586 -345 91
c-309 82 -346 95 -357 116 -7 13 -30 101 -52 194 -22 94 -57 223 -78 288 l-37
118 258 258 c248 248 258 259 246 282 -28 52 -562 974 -569 982 -4 4 -164 -35
-355 -86 l-348 -94 -228 228 -228 229 93 347 c69 260 90 351 81 359 -18 19
-985 574 -999 574 -6 0 -127 -115 -268 -256 l-257 -256 -93 30 c-141 46 -220
68 -369 102 -74 17 -140 37 -146 43 -9 9 -96 324 -187 670 l-9 37 -584 0
c-546 0 -583 -1 -588 -17z"/>
<path d="M9585 5600 c-4 -6 -46 -162 -95 -347 -49 -184 -91 -337 -92 -339 -2
-1 -73 -25 -158 -53 -93 -31 -211 -79 -294 -121 -76 -39 -144 -70 -151 -70 -7
0 -146 79 -308 175 -163 96 -300 175 -304 175 -4 0 -113 -105 -242 -234 -149
-149 -232 -239 -228 -248 3 -8 82 -144 176 -302 94 -158 171 -294 171 -300 0
-7 -29 -69 -64 -139 -60 -119 -123 -278 -163 -412 l-18 -60 -240 -62 c-132
-34 -287 -74 -345 -90 l-105 -28 -3 -337 c-1 -186 0 -338 3 -338 16 0 681
-173 687 -179 4 -3 21 -51 37 -106 36 -122 106 -291 166 -402 25 -46 45 -89
45 -97 0 -8 -79 -147 -175 -309 -96 -163 -175 -302 -175 -309 0 -7 103 -116
229 -242 175 -175 234 -228 248 -224 11 3 141 78 290 166 150 89 283 167 297
173 22 10 41 3 178 -65 94 -47 210 -95 303 -125 l150 -48 90 -352 90 -351 335
0 335 0 90 351 90 352 150 48 c92 30 209 78 302 124 l152 76 298 -172 c163
-95 305 -174 316 -177 14 -4 73 50 248 224 126 126 229 235 229 243 0 7 -79
150 -176 317 l-176 303 75 149 c45 90 93 208 122 296 38 115 53 149 69 155 12
5 171 48 354 97 l332 88 0 336 0 335 -343 89 c-188 49 -347 94 -354 100 -6 6
-32 74 -57 151 -27 80 -78 205 -122 292 l-75 151 166 288 c92 158 172 298 178
311 10 23 -3 38 -224 259 -128 129 -237 234 -242 234 -4 0 -143 -79 -308 -175
-166 -96 -306 -175 -311 -175 -5 0 -55 24 -111 54 -112 60 -296 134 -397 161
-36 10 -71 23 -78 29 -9 9 -192 665 -192 691 0 10 -669 5 -675 -5z"/>
</g>
</svg>
